<?xml version="1.0" encoding="utf-8"?>
<!-- Generator: Adobe Illustrator 24.3.0, SVG Export Plug-In . SVG Version: 6.00 Build 0)  -->
<svg version="1.1" id="Layer_1" xmlns="http://www.w3.org/2000/svg" xmlns:xlink="http://www.w3.org/1999/xlink" x="0px" y="0px"
	 viewBox="0 0 1004.5 913.1" style="enable-background:new 0 0 1004.5 913.1;" xml:space="preserve">
<style type="text/css">
	.st0{opacity:0.74;fill:url(#SVGID_1_);enable-background:new    ;}
	.st1{fill:#FFFFFF;}
	.st2{fill:#5046E5;}
	.st3{fill:#5454EA;}
	.st4{fill:#F5F6F8;}
</style>
<linearGradient id="SVGID_1_" gradientUnits="userSpaceOnUse" x1="10.9612" y1="526.45" x2="752.313" y2="526.45" gradientTransform="matrix(1 0 0 -1 0 916)">
	<stop  offset="0" style="stop-color:#776EFA"/>
	<stop  offset="1" style="stop-color:#CE44FA"/>
</linearGradient>
<path class="st0" d="M641.2,112.9L360.7,10.8c-30.2-11-64.1-5-88.8,15.7l-228.7,192c-24.7,20.7-36.4,52.9-30.9,84.7l51.8,294
	c5.6,31.7,27.7,58,57.9,69l280.5,102.1c30.2,11,64.1,5,88.8-15.7l228.7-192c24.7-20.7,36.4-53,30.9-84.7l-51.8-294
	C693.6,150.2,671.5,124,641.2,112.9z"/>
<g>
	<path class="st1" d="M1004.5,874.1H100.7c-12.4,0-22.5-10.1-22.5-22.5V62.4c0-12.5,10.1-22.5,22.5-22.5h903.8L1004.5,874.1
		L1004.5,874.1z"/>
</g>
<g>
	<path class="st2" d="M1004.5,122.1H78.1V62.4c0-12.5,10.1-22.5,22.5-22.5h903.8L1004.5,122.1L1004.5,122.1z"/>
</g>
<g>
	<path class="st3" d="M203.7,122.1H78.1V62.4c0-12.5,10.1-22.5,22.5-22.5h140.7L203.7,122.1z"/>
</g>
<path class="st4" d="M529.3,448.6H148c-6.6,0-12-5.4-12-12V191.2c0-6.6,5.4-12,12-12h381.3c6.6,0,12,5.4,12,12v245.4
	C541.3,443.2,535.9,448.6,529.3,448.6z"/>
<path class="st4" d="M992.5,448.6H611.2c-6.6,0-12-5.4-12-12V191.2c0-6.6,5.4-12,12-12h381.3c6.6,0,12,5.4,12,12v245.4
	C1004.5,443.2,999.1,448.6,992.5,448.6z"/>
<path class="st4" d="M529.3,818.9H148c-6.6,0-12-5.4-12-12V561.5c0-6.6,5.4-12,12-12h381.3c6.6,0,12,5.4,12,12v245.4
	C541.3,813.5,535.9,818.9,529.3,818.9z"/>
<path class="st4" d="M992.5,818.9H611.2c-6.6,0-12-5.4-12-12V561.5c0-6.6,5.4-12,12-12h381.3c6.6,0,12,5.4,12,12v245.4
	C1004.5,813.5,999.1,818.9,992.5,818.9z"/>
<g>
	<g>
		<path class="st1" d="M162.5,75.6l-23.8,7.8c-1.3,0.4-2.7-0.6-2.7-1.9V74c0-0.9,0.6-1.7,1.4-1.9l23.8-7.8c1.3-0.4,2.7,0.6,2.7,1.9
			v7.4C163.9,74.5,163.3,75.3,162.5,75.6z"/>
	</g>
	<g>
		<path class="st1" d="M162.5,91.3l-23.8,7.8c-1.3,0.4-2.7-0.6-2.7-1.9v-7.4c0-0.9,0.6-1.7,1.4-1.9l23.8-7.8
			c1.3-0.4,2.7,0.6,2.7,1.9v7.4C163.9,90.2,163.3,91,162.5,91.3z"/>
	</g>
</g>
<path class="st4" d="M232.4,513h-87.6c-4.9,0-8.9-4-8.9-8.9v-20.8c0-4.9,4-8.9,8.9-8.9h87.6c4.9,0,8.9,4,8.9,8.9v20.8
	C241.3,509,237.3,513,232.4,513z"/>
<path class="st4" d="M354.5,513H267c-4.9,0-8.9-4-8.9-8.9v-20.8c0-4.9,4-8.9,8.9-8.9h87.5c4.9,0,8.9,4,8.9,8.9v20.8
	C363.4,509,359.4,513,354.5,513z"/>
<path class="st4" d="M695.6,513h-87.5c-4.9,0-8.9-4-8.9-8.9v-20.8c0-4.9,4-8.9,8.9-8.9h87.5c4.9,0,8.9,4,8.9,8.9v20.8
	C704.5,509,700.5,513,695.6,513z"/>
<path class="st4" d="M817.7,513h-87.5c-4.9,0-8.9-4-8.9-8.9v-20.8c0-4.9,4-8.9,8.9-8.9h87.5c4.9,0,8.9,4,8.9,8.9v20.8
	C826.6,509,822.6,513,817.7,513z"/>
</svg>
