<?xml version="1.0" encoding="utf-8"?>
<!-- Generator: Adobe Illustrator 24.3.0, SVG Export Plug-In . SVG Version: 6.00 Build 0)  -->
<svg version="1.1" id="Layer_1" xmlns="http://www.w3.org/2000/svg" xmlns:xlink="http://www.w3.org/1999/xlink" x="0px" y="0px"
	 viewBox="0 0 400 482" style="enable-background:new 0 0 400 482;" xml:space="preserve">
<style type="text/css">
	.st0{fill:url(#SVGID_1_);}
	.st1{fill:url(#SVGID_2_);}
</style>
<g>
	<linearGradient id="SVGID_1_" gradientUnits="userSpaceOnUse" x1="201.5" y1="13.7662" x2="201.5" y2="270.2707">
		<stop  offset="0" style="stop-color:#776EFA"/>
		<stop  offset="1" style="stop-color:#5046E4"/>
	</linearGradient>
	<path class="st0" d="M17,143.62v100.94c0,17.48,17.08,29.85,33.68,24.4l317.64-104.16c10.55-3.46,17.68-13.3,17.68-24.4V39.47
		c0-17.48-17.08-29.85-33.68-24.4L34.68,119.22C24.13,122.68,17,132.52,17,143.62z"/>
	<linearGradient id="SVGID_2_" gradientUnits="userSpaceOnUse" x1="201.5" y1="211.6141" x2="201.5" y2="468.1186">
		<stop  offset="0" style="stop-color:#776EFA"/>
		<stop  offset="1" style="stop-color:#5046E4"/>
	</linearGradient>
	<path class="st1" d="M50.68,466.82l317.64-104.16c10.55-3.46,17.68-13.3,17.68-24.4V237.32c0-17.48-17.08-29.85-33.68-24.4
		L34.68,317.07C24.13,320.53,17,330.37,17,341.47v100.94C17,459.89,34.08,472.27,50.68,466.82z"/>
</g>
</svg>
